<svg width="737" height="330" viewBox="0 0 737 330" fill="none" xmlns="http://www.w3.org/2000/svg">
<path d="M375.552 254.456C326.544 254.456 266.592 249.736 200.688 234.472L196.272 233.448L197.04 228.984C197.92 223.928 218.8 104.36 250.416 37.7678C251.504 35.4478 252.768 33.1438 254.256 30.7438C270.176 5.22376 302 -5.99224 331.616 3.49576C355.616 11.1758 380.992 11.2078 405.008 3.55977L405.248 3.47977C434.848 -5.97623 467.552 5.78377 483.024 31.4318C483.792 32.6958 484.48 33.9278 485.136 35.1758C503.504 70.3438 528.464 132.52 543.12 229.08L543.536 231.832L541.36 233.56C539.104 235.352 514.208 240.76 513.968 240.808C498.848 244.024 474.256 248.472 443.04 251.384C424.096 253.144 401.344 254.456 375.552 254.456ZM207.312 226.136C378.832 264.76 509.184 232.936 533.024 226.344C518.496 133.48 494.416 73.6078 476.656 39.6078C476.096 38.5358 475.504 37.4798 474.848 36.3918C461.664 14.5518 433.728 4.55176 408.368 12.5678L408.128 12.6478C382.144 20.9518 354.688 20.9518 328.72 12.6318C303.28 4.48777 276.016 14.0238 262.432 35.8158C261.152 37.8798 260.064 39.8638 259.12 41.8638C231.424 100.152 211.472 203.448 207.312 226.136Z" fill="#393C51"/>
<path d="M368.4 329.816C271.12 329.816 179.616 322.024 110.736 307.864C19.68 289.144 0.575989 266.28 0.575989 250.392C0.575989 202.824 161.344 183.208 210.624 178.328L217.2 177.672L215.792 184.12C211.568 203.496 208.64 218.904 207.328 226.136C378.832 264.76 509.2 232.936 533.04 226.344C530.816 212.184 528.272 198.136 525.44 184.52L524.112 178.104L530.64 178.776C578.88 183.72 736.256 203.496 736.256 250.376C736.256 266.264 717.136 289.128 626.096 307.848C557.184 322.008 465.68 329.816 368.4 329.816ZM205.008 188.536C70.496 202.52 10.176 229.528 10.176 250.376C10.176 256.712 17.568 278.904 112.672 298.456C180.928 312.488 271.744 320.216 368.4 320.216C465.056 320.216 555.872 312.488 624.128 298.456C719.232 278.904 726.624 256.712 726.624 250.376C726.624 229.864 667.648 203.144 536.128 189C538.752 202.104 541.104 215.544 543.152 229.064L543.568 231.816L541.392 233.544C539.136 235.336 514.24 240.744 514 240.792C498.88 244.008 474.288 248.456 443.072 251.384C388.016 256.52 301.264 257.768 200.688 234.488L196.272 233.464L197.04 229C197.072 228.808 199.936 212.328 205.008 188.536Z" fill="#393C51"/>
<path d="M375.568 254.792C326.56 254.792 266.576 249.976 200.672 234.456L196.48 233.464L197.008 229.192C199.392 209.672 203.376 196.088 203.552 195.512L204.736 191.528L208.848 192.12C210.736 192.392 398.848 219.032 531.856 192.168L536.576 191.208L537.52 195.928C537.552 196.072 540.576 211.368 543.184 229.048L543.776 233.08L539.888 234.312C538.4 234.776 502.928 245.928 443.136 251.608C424.112 253.464 401.36 254.792 375.568 254.792ZM207.104 226.104C377.408 265.176 509.04 233 533.04 226.36C531.52 216.424 529.936 207.656 528.992 202.552C405.968 226.04 240.192 205.992 211.712 202.232C210.528 206.92 208.592 215.432 207.104 226.104Z" fill="#393C51"/>
</svg>
