<svg width="514" height="800" viewBox="0 0 514 800" fill="none" xmlns="http://www.w3.org/2000/svg">
<path d="M410.829 800C313.776 800 309.671 795.882 305.709 791.894C301.956 788.088 297.759 783.826 253.683 372.39C213.986 781.728 212.918 785.117 212.435 786.642C209.125 797.068 208.434 799.192 101.946 799.192C8.84176 799.192 7.59067 796.755 3.42027 788.675C-1.64937 778.874 2.40377 426.189 2.4559 422.618C5.38821 180.826 11.2398 45.5224 19.8152 20.4349C20.4768 18.0858 21.6078 15.8953 23.1399 13.9958C24.6721 12.0962 26.5736 10.5268 28.7294 9.38302C43.3258 2.63218 89.1091 0 192.014 0L256.655 0.11693L322.638 0C449.262 0 478.546 3.7012 488.268 10.5563C496.205 16.1603 502.474 20.5782 508.951 403.212C511.558 557.83 513.812 778.991 512.861 784.882C510.775 796.807 510.228 800 410.829 800ZM325.831 771.602C339.02 772.905 370.272 773.935 410.829 773.935C447.425 773.935 474.402 773.049 487.278 771.993C488.125 685.979 480.514 93.8601 470.14 30.9522C455.726 27.8244 405.994 26.065 322.638 26.065L256.655 26.1819L192.014 26.065C109.492 26.065 59.6556 27.9934 43.5996 31.7989C29.4332 90.9144 24.2332 681.965 27.361 771.55C38.973 772.345 62.9788 773.127 101.946 773.127C141.982 773.127 173.82 772.293 188.221 771.328C194.32 713.985 224.021 408.543 240.103 242.209C240.426 239.003 241.924 236.03 244.309 233.864C246.694 231.698 249.797 230.493 253.019 230.48C256.235 230.481 259.338 231.671 261.729 233.822C264.121 235.973 265.632 238.932 265.973 242.131C286.408 434.881 317.777 722 325.831 771.602Z" fill="#393C51"/>
<path d="M36.0667 156.208C28.9143 156.249 21.8358 154.76 15.3058 151.841C13.7297 151.131 12.5003 149.824 11.888 148.207C11.2758 146.59 11.3309 144.797 12.0412 143.22C12.7515 141.644 14.0588 140.415 15.6755 139.803C17.2923 139.191 19.086 139.246 20.6621 139.956C70.7069 162.541 147.169 61.9434 147.938 60.9269C148.975 59.5443 150.518 58.6302 152.229 58.3858C153.94 58.1414 155.678 58.5866 157.06 59.6235C158.443 60.6605 159.357 62.2041 159.601 63.9149C159.846 65.6258 159.401 67.3639 158.364 68.7465C155.366 72.7474 91.9109 156.208 36.0667 156.208Z" fill="#393C51"/>
<path d="M473.047 156.207C417.202 156.207 353.773 72.7988 350.763 68.7588C349.726 67.3762 349.28 65.6385 349.525 63.9276C349.769 62.2168 350.683 60.6732 352.066 59.6362C353.448 58.5993 355.186 58.1541 356.897 58.3985C358.608 58.6429 360.152 59.557 361.188 60.9396C361.957 61.9561 438.354 162.593 488.451 139.969C490.027 139.258 491.821 139.203 493.437 139.815C495.054 140.428 496.362 141.657 497.072 143.233C497.782 144.809 497.837 146.603 497.225 148.22C496.613 149.836 495.383 151.144 493.807 151.854C487.277 154.769 480.198 156.253 473.047 156.207Z" fill="#393C51"/>
<path d="M255.272 11.9912L242.241 12.1591L245.22 243.441L258.251 243.273L255.272 11.9912Z" fill="#393C51"/>
<path d="M283.437 39.8272C283.435 41.2083 283.161 42.5755 282.631 43.8509C282.101 45.1262 281.325 46.2847 280.347 47.2601C279.369 48.2356 278.209 49.0085 276.932 49.5355C275.655 50.0625 274.288 50.3331 272.906 50.3313C271.531 50.3314 270.168 50.0588 268.898 49.5299C267.628 49.0011 266.475 48.2262 265.506 47.2498C264.537 46.2734 263.771 45.1149 263.251 43.8409C262.732 42.567 262.47 41.2029 262.48 39.8272C262.48 37.062 263.579 34.4099 265.534 32.4546C267.489 30.4994 270.141 29.4009 272.906 29.4009C275.683 29.3939 278.35 30.4869 280.323 32.4407C282.297 34.3945 283.416 37.0503 283.437 39.8272Z" fill="#393C51"/>
<path d="M482.273 54.3843H26.8267V67.4168H482.273V54.3843Z" fill="#393C51"/>
<path d="M109.231 67.4169C107.503 67.4169 105.845 66.7307 104.623 65.5087C103.401 64.2866 102.715 62.6289 102.715 60.9007V20.2262C102.715 18.498 103.401 16.8407 104.623 15.6186C105.845 14.3966 107.503 13.71 109.231 13.71C110.959 13.71 112.617 14.3966 113.839 15.6186C115.061 16.8407 115.747 18.498 115.747 20.2262V60.9007C115.747 62.6289 115.061 64.2866 113.839 65.5087C112.617 66.7307 110.959 67.4169 109.231 67.4169Z" fill="#393C51"/>
<path d="M391.059 67.4169C389.331 67.4169 387.673 66.7307 386.451 65.5087C385.229 64.2866 384.543 62.6289 384.543 60.9007V20.2262C384.543 18.498 385.229 16.8407 386.451 15.6186C387.673 14.3966 389.331 13.71 391.059 13.71C392.787 13.71 394.445 14.3966 395.667 15.6186C396.889 16.8407 397.575 18.498 397.575 20.2262V60.9007C397.575 62.6289 396.889 64.2866 395.667 65.5087C394.445 66.7307 392.787 67.4169 391.059 67.4169Z" fill="#393C51"/>
</svg>
