<svg width="510" height="800" viewBox="0 0 510 800" fill="none" xmlns="http://www.w3.org/2000/svg">
<path d="M487.68 568.583C478.005 541.347 465.834 519.345 453.292 499.944C443.876 485.394 434.272 472.273 425.291 459.4C411.784 440.048 399.709 421.319 390.923 398.728C382.158 376.138 376.53 349.523 376.508 313.956C376.508 308.13 377.378 302.367 378.95 296.55C381.703 286.378 386.731 276.072 392.951 265.755C402.275 250.242 414.217 234.866 424.233 219.25C429.231 211.417 433.764 203.5 437.158 195.231C440.531 186.984 442.787 178.302 442.787 169.195C442.797 157.233 439.558 145.809 433.919 135.687C425.433 120.497 411.691 108.141 394.937 99.5406C388.8 96.3953 382.241 93.7562 375.348 91.6562V0H352.261V86.9141C347.264 86.3453 342.161 86.0453 336.978 86.0453C317.781 86.0453 299.723 90.0297 284.078 97.1078C273.026 102.116 263.184 108.697 255 116.573C246.816 108.698 236.973 102.117 225.922 97.1078C210.275 90.0297 192.217 86.0453 173.022 86.0453C167.837 86.0453 162.725 86.3453 157.728 86.9141V0H134.651V91.6641C121.489 95.6688 109.526 101.681 99.3952 109.359C89.739 116.686 81.7312 125.553 76.0812 135.684C70.4312 145.806 67.203 157.23 67.2124 169.192C67.2124 176.116 68.5265 182.831 70.6374 189.267C74.353 200.527 80.4374 211.061 87.2155 221.481C97.3968 237.066 109.297 252.453 118.362 267.955C122.894 275.695 126.725 283.425 129.362 291.083C132.012 298.752 133.491 306.316 133.491 313.953C133.491 335.022 131.494 352.966 128.058 368.778C122.036 396.428 111.676 417.663 99.0311 437.925C89.5624 453.097 78.7483 467.656 67.728 483.55C51.2124 507.362 34.2812 534.247 21.7093 570.289C9.12491 606.331 0.920226 651.356 0.931163 711.623V715.992L3.80772 719.283C4.92491 720.586 12.6343 728.709 31.2515 736.338C49.889 743.984 79.3499 751.166 124.189 751.156C136.473 751.187 146.066 753.753 155.141 757.778C161.928 760.809 168.408 764.742 175.092 769.12C185.13 775.67 195.623 783.297 208.455 789.444C214.87 792.508 221.876 795.177 229.606 797.039C237.325 798.923 245.759 800 255 800C271.422 800.02 285.309 796.544 297.18 791.431C306.089 787.603 313.883 782.925 321.094 778.269C331.898 771.253 341.439 764.319 351.487 759.372C356.517 756.887 361.67 754.859 367.258 753.433C372.856 752.005 378.9 751.167 385.812 751.156C430.65 751.167 460.112 743.986 478.75 736.338C497.376 728.709 505.075 720.586 506.194 719.283L509.07 715.992V711.623C509.08 650.406 500.614 604.906 487.68 568.583ZM464.655 716.841C448.78 722.491 423.697 727.903 385.812 727.903C370.134 727.872 356.806 731.411 345.381 736.544C336.792 740.383 329.248 745.03 322.17 749.666C311.553 756.641 301.95 763.5 291.53 768.458C286.303 770.952 280.881 772.991 274.92 774.439C268.95 775.887 262.441 776.736 255 776.736C241.775 776.714 231.469 774.095 221.989 770.05C214.891 767.008 208.267 763.097 201.551 758.75C191.461 752.252 181.217 744.677 168.83 738.53C162.641 735.467 155.916 732.777 148.495 730.892C141.086 728.987 133.003 727.902 124.186 727.902C81.8109 727.902 55.464 721.123 40.0858 714.811C32.3858 711.664 27.4202 708.622 24.5124 706.533C24.4093 706.459 24.3249 706.398 24.2327 706.325C24.7187 649.969 32.6671 608.897 44.2249 576.372C53.1874 551.194 64.3218 531.027 76.2421 512.566C85.1827 498.73 94.5796 485.877 103.778 472.705C117.551 452.959 130.912 432.448 140.753 407.158C150.594 381.867 156.761 351.97 156.741 313.952C156.741 305.817 155.53 297.964 153.491 290.45C149.9 277.278 143.825 265.15 136.966 253.745C126.658 236.67 114.52 221.077 105.351 206.713C100.767 199.552 96.9374 192.722 94.3608 186.42C91.7733 180.098 90.4593 174.384 90.4593 169.191C90.4702 161.389 92.5093 154 96.3983 147.003C102.205 136.541 112.356 127.052 125.664 120.233C133.083 116.423 141.475 113.495 150.498 111.623H157.722V110.381C162.678 109.698 167.78 109.294 173.016 109.294C188.983 109.294 203.822 112.637 216.334 118.297C228.845 123.947 238.956 131.914 245.672 140.939L255 153.422L264.312 140.942C271.039 131.917 281.15 123.95 293.661 118.3C306.161 112.639 321.011 109.297 336.98 109.297C342.205 109.297 347.306 109.669 352.262 110.353V111.625H359.631C373.994 114.638 386.701 120.389 396.544 127.883C403.931 133.491 409.716 140.031 413.597 147.005C417.487 154 419.526 161.389 419.537 169.192C419.537 173.155 418.781 177.398 417.261 182.003C414.644 190.075 409.614 199.141 403.311 208.773C393.873 223.272 381.694 238.969 371.573 256.198C366.523 264.83 361.98 273.884 358.659 283.497C355.348 293.091 353.256 303.272 353.256 313.952C353.256 336.491 355.398 356.152 359.217 373.712C365.87 404.456 377.72 428.641 391.245 450.247C401.386 466.473 412.439 481.312 423.159 496.794C439.261 520.036 454.691 544.644 466.331 577.944C477.591 610.231 485.291 650.878 485.766 706.323C482.308 708.853 475.708 712.889 464.655 716.841Z" fill="#393C51"/>
</svg>
