<svg width="246" height="234" viewBox="0 0 246 234" fill="none" xmlns="http://www.w3.org/2000/svg">
<path d="M90.5 2.42715C100.137 6.41935 120 31.999 120 31.999L100.333 51.7136L90.5 41.8563V101H31.5V41.8563L21.6667 51.7136L2 31.999C2 31.999 21.8633 6.41935 31.5 2.42715C33.7617 1.46606 41.3333 2.42715 41.3333 2.42715C41.3333 12.2844 51.1667 22.1417 61 22.1417C70.8333 22.1417 80.6667 12.2844 80.6667 2.42715C80.6667 2.42715 88.2383 1.46606 90.5 2.42715Z" stroke="#393C51" stroke-width="3"/>
<path d="M212.457 216.362C216.867 216.362 220.502 216.308 222.76 216.172C240.087 215.129 240.378 212.246 240.476 211.3C240.499 211.079 240.539 210.809 240.582 210.506C241.02 208.412 240.962 206.246 240.415 204.179H240.408C239.697 202.286 235.653 194.571 216.96 194.571C214.799 194.498 197.855 186.661 192.286 184.087C189.504 182.8 188.889 182.518 188.666 182.445L188.485 182.379C187.97 182.128 187.405 181.998 186.832 182C186.259 182.002 185.695 182.135 185.181 182.388C184.579 182.817 184.082 183.376 183.726 184.023C183.37 184.67 183.164 185.389 183.124 186.127C182.754 188.403 181.573 190.468 179.801 191.942C178.028 193.417 175.782 194.201 173.477 194.151H173.467C168.745 194.151 165.127 188.707 165.092 188.652C164.864 188.305 164.552 188.023 164.184 187.831C163.817 187.64 163.406 187.545 162.992 187.556C162.514 187.625 162.065 187.825 161.694 188.134C161.323 188.444 161.045 188.85 160.891 189.307C159.566 192.08 157.647 204.188 158.056 207.08C158.401 215.147 160.033 215.336 160.818 215.426C160.868 215.432 160.919 215.435 160.969 215.435C161.429 215.435 163.599 215.489 166.88 215.567C177.432 215.832 198.711 216.362 212.457 216.362ZM237.865 210.818C237.167 211.418 233.375 212.88 222.601 213.527C213.419 214.08 180.849 213.262 166.941 212.919C164.35 212.854 162.444 212.808 161.51 212.787C161.003 210.861 160.729 208.881 160.694 206.889C160.691 206.832 160.685 206.776 160.675 206.72C160.331 204.733 162 193.402 163.209 190.588C164.338 192.111 168.219 196.791 173.459 196.793H173.472C176.406 196.852 179.263 195.848 181.515 193.967C183.768 192.086 185.265 189.455 185.731 186.557C185.985 185.042 186.413 184.725 186.497 184.678C186.727 184.545 187.238 184.737 187.546 184.852C187.654 184.893 187.751 184.929 187.835 184.957C188.023 185.031 189.48 185.704 191.166 186.484C207.858 194.205 215.093 197.215 216.953 197.215C235.461 197.215 237.945 205.133 237.965 205.213C238.293 206.834 238.29 208.505 237.955 210.124C237.924 210.384 237.891 210.617 237.865 210.822V210.818Z" fill="#393C51"/>
<path d="M220.568 210.512C220.789 210.509 221.007 210.455 221.204 210.355C221.401 210.255 221.572 210.111 221.705 209.935C223.435 207.774 221.602 198.492 221.216 196.653L219.921 196.918C220.824 201.236 221.655 207.872 220.672 209.105C220.608 209.185 220.575 209.186 220.55 209.186L220.568 210.512Z" fill="#393C51"/>
<path d="M218.616 200.794H221.167V199.469H219.746C213.542 199.493 212.896 199.493 203.529 194.78C197.37 191.884 191.068 189.303 184.646 187.049L184.209 188.298C190.576 190.535 196.825 193.093 202.933 195.963C211.971 200.511 213.262 200.794 218.616 200.794Z" fill="#393C51"/>
<path d="M172.04 205.897C181.711 205.007 186.963 201.5 187.182 201.352C189.177 200.329 197.263 202.427 201.607 203.556C203.543 204.06 204.944 204.423 205.61 204.495C208.143 204.784 211.927 200.439 212.35 199.944L211.341 199.084C209.923 200.749 207.153 203.323 205.754 203.179C205.183 203.116 203.68 202.726 201.939 202.274C195.13 200.507 188.824 199.02 186.506 200.217C186.385 200.291 181.223 203.72 171.918 204.578L172.04 205.897Z" fill="#393C51"/>
<path d="M169.248 203.446C175.089 202.942 180.759 201.213 185.887 198.371C187.898 197.376 195.943 199.394 200.266 200.483C202.2 200.969 203.598 201.32 204.263 201.39C206.848 201.688 209.244 198.693 209.344 198.566L208.306 197.743C207.745 198.448 205.956 200.226 204.402 200.074C203.831 200.013 202.329 199.635 200.589 199.198C193.82 197.494 187.555 196.065 185.248 197.211C180.27 199.94 174.783 201.612 169.13 202.124L169.248 203.446Z" fill="#393C51"/>
<path d="M174.633 209.606C174.633 203.208 160.818 197.518 160.23 197.286L159.731 198.511C163.509 200.049 173.312 205.037 173.308 209.611L174.633 209.606Z" fill="#393C51"/>
<path d="M204.685 211.063C237.734 211.063 239.707 205.415 239.823 204.721L238.529 204.456C238.508 204.518 235.959 210.692 195.668 209.622C163.645 208.766 159.663 208.12 159.205 207.944L159.099 208.219L159.059 207.726C158.235 207.835 158.199 208.364 158.207 208.521C158.25 209.349 158.28 209.947 195.632 210.946C198.876 211.024 201.893 211.063 204.685 211.063Z" fill="#393C51"/>
<path d="M192.625 185.667L193.796 186.286L191.609 190.426L190.437 189.808L192.625 185.667Z" fill="#393C51"/>
<path d="M197.588 187.736L198.759 188.355L196.572 192.495L195.401 191.877L197.588 187.736Z" fill="#393C51"/>
<path d="M202.211 189.807L203.383 190.425L201.195 194.566L200.024 193.947L202.211 189.807Z" fill="#393C51"/>
<path d="M206.983 191.876L208.155 192.495L205.967 196.636L204.796 196.017L206.983 191.876Z" fill="#393C51"/>
<path d="M211.979 193.947L213.15 194.565L210.963 198.706L209.791 198.087L211.979 193.947Z" fill="#393C51"/>
<path d="M216.495 195.082L217.666 195.701L215.479 199.84L214.308 199.221L216.495 195.082Z" fill="#393C51"/>
<path d="M83.981 234C69.5443 234 68.9337 233.387 68.3444 232.794C67.7861 232.228 67.1618 231.594 60.6056 170.393C54.7006 231.282 54.5417 231.786 54.4699 232.013C53.9775 233.564 53.8748 233.88 38.0346 233.88C24.1854 233.88 23.9993 233.517 23.379 232.315C22.6249 230.857 23.2278 178.395 23.2355 177.864C23.6717 141.898 24.5421 121.771 25.8177 118.04C25.9161 117.69 26.0844 117.364 26.3123 117.082C26.5402 116.799 26.823 116.566 27.1437 116.396C29.3149 115.392 36.1252 115 51.4322 115L61.0475 115.017L70.8626 115C89.6978 115 94.0538 115.551 95.5 116.57C96.6806 117.404 97.6131 118.061 98.5765 174.978C98.9643 197.977 99.2996 230.875 99.1581 231.751C98.8479 233.525 98.7665 234 83.981 234ZM71.3375 229.776C73.2994 229.969 77.9481 230.123 83.981 230.123C89.4245 230.123 93.4374 229.991 95.3527 229.834C95.4787 217.039 94.3465 128.962 92.8034 119.604C90.6594 119.139 83.2617 118.877 70.8626 118.877L61.0475 118.895L51.4322 118.877C39.1571 118.877 31.744 119.164 29.3556 119.73C27.2484 128.523 26.4749 216.442 26.9402 229.768C28.6674 229.886 32.2383 230.002 38.0346 230.002C43.99 230.002 48.7259 229.878 50.8681 229.735C51.7753 221.205 56.1933 175.771 58.5855 151.029C58.6335 150.552 58.8563 150.109 59.2111 149.787C59.5659 149.465 60.0274 149.286 60.5067 149.284C60.9851 149.284 61.4466 149.461 61.8023 149.781C62.1581 150.101 62.3829 150.541 62.4336 151.017C65.4733 179.688 70.1395 222.397 71.3375 229.776Z" fill="#393C51"/>
<path d="M28.2352 138.236C27.1713 138.242 26.1183 138.021 25.147 137.586C24.9126 137.481 24.7297 137.286 24.6386 137.046C24.5475 136.805 24.5557 136.539 24.6614 136.304C24.767 136.07 24.9615 135.887 25.202 135.796C25.4425 135.705 25.7093 135.713 25.9438 135.819C33.3879 139.178 44.7616 124.214 44.8759 124.063C45.0302 123.857 45.2598 123.721 45.5143 123.685C45.7688 123.649 46.0273 123.715 46.2329 123.869C46.4386 124.023 46.5746 124.253 46.6109 124.507C46.6473 124.762 46.5811 125.02 46.4268 125.226C45.9809 125.821 36.542 138.236 28.2352 138.236Z" fill="#393C51"/>
<path d="M93.2358 138.236C84.929 138.236 75.4939 125.829 75.0461 125.228C74.8918 125.022 74.8256 124.764 74.8619 124.509C74.8983 124.255 75.0343 124.025 75.2399 123.871C75.4456 123.717 75.7041 123.65 75.9586 123.687C76.2131 123.723 76.4427 123.859 76.5969 124.065C76.7113 124.216 88.0753 139.186 95.5272 135.82C95.7616 135.715 96.0284 135.707 96.2689 135.798C96.5094 135.889 96.7039 136.071 96.8095 136.306C96.9152 136.54 96.9234 136.807 96.8324 137.048C96.7413 137.288 96.5584 137.483 96.324 137.588C95.3525 138.022 94.2996 138.243 93.2358 138.236Z" fill="#393C51"/>
<path d="M60.8418 116.784L58.9034 116.809L59.3466 151.212L61.285 151.187L60.8418 116.784Z" fill="#393C51"/>
<path d="M65.0313 120.924C65.0311 121.13 64.9904 121.333 64.9115 121.523C64.8327 121.713 64.7172 121.885 64.5718 122.03C64.4263 122.175 64.2537 122.29 64.0638 122.368C63.8739 122.447 63.6704 122.487 63.465 122.487C63.2603 122.487 63.0577 122.446 62.8688 122.368C62.6799 122.289 62.5084 122.174 62.3642 122.028C62.22 121.883 62.106 121.711 62.0288 121.521C61.9515 121.332 61.9126 121.129 61.9141 120.924C61.9141 120.513 62.0775 120.118 62.3683 119.828C62.6592 119.537 63.0537 119.373 63.465 119.373C63.878 119.372 64.2747 119.535 64.5682 119.826C64.8618 120.116 65.0283 120.511 65.0313 120.924Z" fill="#393C51"/>
<path d="M94.6084 123.09H26.8608V125.028H94.6084V123.09Z" fill="#393C51"/>
<path d="M39.1182 125.028C38.8611 125.028 38.6146 124.926 38.4328 124.744C38.251 124.562 38.1489 124.316 38.1489 124.059V118.009C38.1489 117.751 38.251 117.505 38.4328 117.323C38.6146 117.141 38.8611 117.039 39.1182 117.039C39.3753 117.039 39.6218 117.141 39.8036 117.323C39.9854 117.505 40.0875 117.751 40.0875 118.009V124.059C40.0875 124.316 39.9854 124.562 39.8036 124.744C39.6218 124.926 39.3753 125.028 39.1182 125.028Z" fill="#393C51"/>
<path d="M81.0399 125.028C80.7829 125.028 80.5363 124.926 80.3545 124.744C80.1727 124.562 80.0706 124.316 80.0706 124.059V118.009C80.0706 117.751 80.1727 117.505 80.3545 117.323C80.5363 117.141 80.7829 117.039 81.0399 117.039C81.297 117.039 81.5435 117.141 81.7253 117.323C81.9071 117.505 82.0092 117.751 82.0092 118.009V124.059C82.0092 124.316 81.9071 124.562 81.7253 124.744C81.5435 124.926 81.297 125.028 81.0399 125.028Z" fill="#393C51"/>
<path d="M198.527 44.9099C192.184 44.9099 184.426 44.2991 175.897 42.3238L175.325 42.1912L175.425 41.6135C175.539 40.9592 178.241 25.4856 182.332 16.8678C182.473 16.5675 182.637 16.2694 182.829 15.9588C184.89 12.6562 189.008 11.2047 192.841 12.4326C195.947 13.4264 199.231 13.4306 202.339 12.4408L202.37 12.4305C206.2 11.2068 210.433 12.7287 212.435 16.0478C212.534 16.2114 212.623 16.3708 212.708 16.5323C215.085 21.0835 218.315 29.1299 220.212 41.626L220.266 41.9821L219.984 42.2057C219.692 42.4376 216.47 43.1375 216.439 43.1437C214.483 43.5599 211.3 44.1355 207.26 44.5124C204.809 44.7401 201.864 44.9099 198.527 44.9099ZM176.754 41.245C198.951 46.2434 215.82 42.125 218.905 41.2719C217.025 29.2541 213.909 21.5059 211.611 17.1059C211.538 16.9672 211.462 16.8305 211.377 16.6897C209.671 13.8633 206.055 12.5692 202.773 13.6066L202.742 13.6169C199.38 14.6916 195.826 14.6916 192.466 13.6149C189.174 12.5609 185.645 13.795 183.887 16.6152C183.722 16.8823 183.581 17.139 183.459 17.3979C179.875 24.9411 177.293 38.3089 176.754 41.245Z" fill="#393C51"/>
<path d="M197.601 54.6625C185.012 54.6625 173.17 53.6541 164.256 51.8216C152.472 49.399 150 46.4401 150 44.384C150 38.2281 170.805 35.6896 177.183 35.058L178.034 34.9731L177.852 35.8076C177.305 38.3151 176.926 40.3091 176.756 41.245C198.951 46.2434 215.822 42.125 218.908 41.2719C218.62 39.4394 218.291 37.6214 217.924 35.8594L217.752 35.029L218.597 35.116C224.84 35.7558 245.206 38.3151 245.206 44.3819C245.206 46.4381 242.732 49.3969 230.95 51.8195C222.032 53.652 210.19 54.6625 197.601 54.6625ZM176.456 36.3791C159.049 38.1888 151.242 41.6839 151.242 44.3819C151.242 45.2019 152.199 48.0738 164.507 50.6041C173.34 52.42 185.093 53.4201 197.601 53.4201C210.11 53.4201 221.862 52.42 230.695 50.6041C243.003 48.0738 243.96 45.2019 243.96 44.3819C243.96 41.7274 236.328 38.2695 219.307 36.4391C219.647 38.1349 219.951 39.8742 220.216 41.6239L220.27 41.9801L219.988 42.2037C219.696 42.4356 216.475 43.1354 216.444 43.1417C214.487 43.5578 211.304 44.1335 207.265 44.5124C200.14 45.1771 188.913 45.3386 175.897 42.3258L175.326 42.1933L175.425 41.6156C175.429 41.5908 175.8 39.4581 176.456 36.3791Z" fill="#393C51"/>
<path d="M198.529 44.9534C192.186 44.9534 184.424 44.3301 175.895 42.3216L175.352 42.1933L175.421 41.6404C175.729 39.1143 176.245 37.3563 176.268 37.2818L176.421 36.7662L176.953 36.8428C177.197 36.878 201.541 40.3256 218.754 36.849L219.365 36.7248L219.487 37.3356C219.491 37.3543 219.883 39.3338 220.22 41.6218L220.297 42.1436L219.794 42.303C219.601 42.3631 215.011 43.8063 207.273 44.5413C204.811 44.7815 201.866 44.9534 198.529 44.9534ZM176.727 41.2408C198.767 46.2972 215.802 42.1332 218.908 41.2739C218.711 39.9881 218.506 38.8534 218.384 38.1929C202.463 41.2325 181.009 38.638 177.324 38.1515C177.17 38.7581 176.92 39.8597 176.727 41.2408Z" fill="#393C51"/>
<path d="M232.989 116.568V115.852C232.989 115.296 232.929 115.185 232.638 115.035C232.122 114.76 231.588 114.52 231.039 114.318C230.928 114.28 230.804 114.246 230.694 114.209C225.804 98.3505 220.63 91 218.38 91C217.164 91 216.749 91.8349 216.305 93.7532C215.238 98.3493 216.238 99.8038 216.871 100.443C217.746 101.326 219.169 100.602 219.169 95.6963C220.121 98.0017 223.928 105.089 226.875 113.364C221.95 112.637 215.655 112.7 212.254 113.005C207.645 113.414 203.8 114.463 200.655 116.099C197.71 117.591 193.29 117.591 190.345 116.099C187.196 114.463 183.354 113.414 178.752 113.005C175.343 112.702 169.047 112.637 164.125 113.364C167.07 105.09 170.875 98.003 171.827 95.6963C171.827 100.602 173.252 101.326 174.125 100.443C174.758 99.8038 175.762 98.3493 174.694 93.7532C174.247 91.8349 173.834 91 172.614 91C170.362 91 165.193 98.3505 160.302 114.212C160.193 114.248 160.073 114.281 159.965 114.318C159.418 114.512 158.882 114.765 158.363 115.035C158.07 115.185 158.012 115.296 158.012 115.852V116.568C158.012 117.916 157.843 117.392 158.793 117.953C160.644 119.053 161.693 121.902 162.259 125.828C163.06 131.548 165.825 135.133 170.324 136.847C174.512 138.431 179.152 138.381 183.303 136.705C185.569 135.788 187.555 134.336 189.135 131.984C191.905 127.858 191.074 125.283 192.504 121.739C193.749 118.644 197.248 118.644 198.495 121.739C199.925 125.283 199.094 127.858 201.863 131.984C203.441 134.336 205.43 135.788 207.696 136.705C211.847 138.381 216.488 138.432 220.675 136.847C225.17 135.133 227.941 131.548 228.741 125.828C229.304 121.902 230.355 119.051 232.205 117.953C233.155 117.392 232.989 117.916 232.989 116.568Z" fill="#393C51"/>
</svg>
