<svg width="807" height="335" viewBox="0 0 807 335" fill="none" xmlns="http://www.w3.org/2000/svg">
<path d="M530.294 335C573.238 335 608.635 334.471 630.617 333.14C799.347 322.977 802.185 294.874 803.14 285.653C803.359 283.496 803.746 280.861 804.172 277.903C808.43 257.496 807.873 236.376 802.546 216.223H802.469C795.555 197.767 756.171 122.551 574.141 122.551C553.101 121.841 388.098 45.4366 333.867 20.3431C306.777 7.80282 300.792 5.05219 298.625 4.34187L296.857 3.69589C291.844 1.24875 286.338 -0.0155277 280.761 0.000143935C275.184 0.0158156 269.684 1.31126 264.685 3.78654C258.826 7.96475 253.982 13.4108 250.514 19.7204C247.045 26.03 245.042 33.0408 244.651 40.2321C241.045 62.4186 229.553 82.5535 212.291 96.9279C195.03 111.302 173.161 118.948 150.714 118.457H150.611C104.636 118.457 69.4062 65.3902 69.0579 64.8478C66.8394 61.4725 63.7973 58.7199 60.2193 56.8509C56.6413 54.9818 52.6459 54.0583 48.6116 54.1673C43.957 54.838 39.5797 56.7892 35.9674 59.8037C32.3552 62.8182 29.6497 66.7775 28.1524 71.2405C15.2525 98.2713 -3.43949 216.313 0.546584 244.506C3.90056 323.157 19.7932 324.991 27.4428 325.87C27.9305 325.932 28.4217 325.962 28.9134 325.959C33.3897 325.959 54.5198 326.489 86.4728 327.251C189.221 329.834 396.432 335 530.294 335ZM777.714 280.951C770.916 286.802 733.983 301.047 629.069 307.362C539.659 312.748 222.502 304.779 87.0661 301.434C61.8339 300.802 43.271 300.35 34.1766 300.143C29.2408 281.365 26.573 262.061 26.2303 242.646C26.2041 242.092 26.1437 241.54 26.0496 240.993C22.6956 221.621 38.9496 111.16 50.7272 83.7293C61.718 98.5684 99.5146 144.196 150.534 144.222H150.663C179.235 144.794 207.051 135.009 228.987 116.671C250.924 98.3336 265.502 72.6778 270.038 44.4295C272.515 29.655 276.682 26.5682 277.495 26.1033C279.739 24.8118 284.718 26.6843 287.711 27.8079C288.769 28.2083 289.711 28.5571 290.523 28.8283C292.355 29.5516 306.545 36.1125 322.967 43.7193C485.505 118.987 555.965 148.329 574.076 148.329C754.301 148.329 778.488 225.521 778.682 226.309C781.882 242.11 781.852 258.396 778.591 274.184C778.282 276.716 777.959 278.988 777.714 280.99V280.951Z" fill="#393C51"/>
<path d="M609.28 277.968C611.432 277.936 613.548 277.412 615.466 276.437C617.384 275.461 619.054 274.059 620.348 272.338C637.195 251.273 619.342 160.779 615.588 142.854L602.972 145.436C611.77 187.539 619.858 252.229 610.286 264.252C609.667 265.027 609.344 265.041 609.099 265.041L609.28 277.968Z" fill="#393C51"/>
<path d="M590.266 183.225H615.111V170.31H601.269C540.859 170.543 534.564 170.543 443.348 124.592C383.377 96.3541 322.005 71.1978 259.473 49.2211L255.216 61.3997C317.215 83.2047 378.069 108.145 437.544 136.125C525.56 180.462 538.124 183.225 590.266 183.225Z" fill="#393C51"/>
<path d="M136.718 232.973C230.887 224.294 282.035 190.108 284.164 188.662C303.591 178.692 382.332 199.149 424.631 210.152C443.491 215.06 457.126 218.598 463.614 219.309C488.279 222.124 525.134 179.763 529.249 174.933L519.419 166.552C505.616 182.786 478.643 207.879 465.02 206.472C459.461 205.865 444.819 202.054 427.869 197.651C361.563 180.422 300.16 165.932 277.585 177.594C276.411 178.317 226.14 211.754 135.531 220.11L136.718 232.973Z" fill="#393C51"/>
<path d="M109.525 209.081C166.409 204.168 221.62 187.31 271.56 159.604C291.142 149.905 369.484 169.574 411.576 180.19C430.41 184.93 444.019 188.352 450.495 189.037C475.676 191.943 498.999 162.742 499.979 161.502L489.866 153.482C484.409 160.353 466.981 177.685 451.849 176.2C446.29 175.605 431.661 171.925 414.724 167.663C348.805 151.054 287.801 137.119 265.33 148.29C216.859 174.894 163.428 191.201 108.377 196.192L109.525 209.081Z" fill="#393C51"/>
<path d="M161.963 269.134C161.963 206.756 27.4428 151.287 21.7152 149.026L16.8519 160.972C53.6425 175.967 149.102 224.591 149.063 269.186L161.963 269.134Z" fill="#393C51"/>
<path d="M454.61 283.341C776.437 283.341 795.645 228.272 796.78 221.505L784.177 218.922C783.971 219.529 759.151 279.725 366.801 269.289C54.9713 260.946 16.194 254.644 11.7307 252.927L10.6986 255.613L10.3117 250.808C2.28792 251.867 1.93975 257.02 2.01715 258.557C2.42994 266.629 2.72656 272.454 366.452 282.192C398.04 282.958 427.426 283.341 454.61 283.341Z" fill="#393C51"/>
<path d="M337.167 35.749L348.573 41.7816L327.272 82.1488L315.866 76.1162L337.167 35.749Z" fill="#393C51"/>
<path d="M385.503 55.9221L396.909 61.9547L375.608 102.322L364.202 96.2894L385.503 55.9221Z" fill="#393C51"/>
<path d="M430.523 76.1076L441.929 82.1402L420.629 122.507L409.223 116.475L430.523 76.1076Z" fill="#393C51"/>
<path d="M477.002 96.2807L488.408 102.313L467.107 142.681L455.701 136.648L477.002 96.2807Z" fill="#393C51"/>
<path d="M525.634 116.467L537.041 122.499L515.74 162.866L504.334 156.834L525.634 116.467Z" fill="#393C51"/>
<path d="M569.61 127.535L581.016 133.568L559.722 173.923L548.316 167.891L569.61 127.535Z" fill="#393C51"/>
</svg>
