<svg width="14" height="14" viewBox="0 0 14 14" fill="none" xmlns="http://www.w3.org/2000/svg">
<g clip-path="url(#clip0_106_55)">
<path d="M12.839 3.29548C12.8075 3.23421 12.762 3.18124 12.7061 3.1409C12.6503 3.10055 12.5857 3.07397 12.5176 3.06331C12.4495 3.05265 12.3799 3.05821 12.3144 3.07955C12.2489 3.10089 12.1894 3.1374 12.1406 3.1861L10.4606 4.8672C10.3782 4.94847 10.267 4.99403 10.1512 4.99403C10.0354 4.99403 9.92431 4.94847 9.84184 4.8672L9.11559 4.13985C9.07496 4.09923 9.04272 4.05099 9.02073 3.99791C8.99874 3.94482 8.98742 3.88792 8.98742 3.83046C8.98742 3.773 8.99874 3.7161 9.02073 3.66301C9.04272 3.60993 9.07496 3.56169 9.11559 3.52106L10.7885 1.8479C10.8386 1.79776 10.8758 1.73618 10.8969 1.66846C10.918 1.60074 10.9223 1.52892 10.9094 1.45918C10.8965 1.38944 10.8669 1.32387 10.8231 1.26812C10.7792 1.21237 10.7225 1.16811 10.6578 1.13915C9.39422 0.574228 7.81704 0.868994 6.82255 1.8561C5.97762 2.69501 5.72579 4.00587 6.13212 5.45263C6.15402 5.52978 6.15415 5.61149 6.13248 5.68871C6.11081 5.76592 6.06819 5.83564 6.00934 5.89013L1.45716 10.0477C1.27981 10.207 1.13677 10.4007 1.03675 10.617C0.93673 10.8333 0.881828 11.0677 0.875395 11.306C0.868962 11.5442 0.911132 11.7813 0.999333 12.0027C1.08753 12.2241 1.21992 12.4252 1.38841 12.5938C1.5569 12.7624 1.75796 12.8948 1.97933 12.9831C2.2007 13.0714 2.43774 13.1137 2.67599 13.1074C2.91424 13.1011 3.1487 13.0463 3.36507 12.9463C3.58145 12.8464 3.77519 12.7035 3.9345 12.5262L8.13669 7.96388C8.19039 7.90579 8.25893 7.86345 8.33491 7.84143C8.4109 7.81941 8.49145 7.81854 8.5679 7.83892C8.97979 7.95177 9.40466 8.01033 9.83172 8.0131C10.745 8.0131 11.5465 7.71751 12.1245 7.14794C13.195 6.09329 13.3582 4.30446 12.839 3.29548ZM2.72016 12.2268C2.54008 12.2464 2.35833 12.2097 2.2 12.1217C2.04168 12.0336 1.91458 11.8986 1.83624 11.7353C1.75791 11.5719 1.73221 11.3883 1.76269 11.2097C1.79317 11.0312 1.87832 10.8664 2.00639 10.7383C2.13446 10.6102 2.29915 10.525 2.47771 10.4945C2.65627 10.4639 2.83991 10.4896 3.00329 10.5678C3.16666 10.6461 3.30171 10.7732 3.3898 10.9314C3.47789 11.0897 3.51468 11.2715 3.49508 11.4516C3.47353 11.6497 3.38496 11.8346 3.24405 11.9755C3.10313 12.1165 2.91831 12.2051 2.72016 12.2268Z" fill="#2C3AA1"/>
</g>
<defs>
<clipPath id="clip0_106_55">
<rect width="14" height="14" fill="white"/>
</clipPath>
</defs>
</svg>
