<svg width="21" height="13" viewBox="0 0 21 13" fill="none" xmlns="http://www.w3.org/2000/svg">
<path d="M11.8799 2.92488C12.0406 2.71471 12.1344 2.46087 12.1344 2.18751C12.1344 1.46263 11.4743 0.875003 10.66 0.875003C9.89545 0.875003 9.26683 1.39301 9.19284 2.05626H9.18557C9.18557 2.29788 8.96553 2.49376 8.69409 2.49376C8.42265 2.49376 8.20261 2.29788 8.20261 2.05626C8.20261 2.02026 8.20749 1.98528 8.2167 1.95181C8.34876 0.854528 9.39229 0 10.66 0C12.0172 0 13.1174 0.97938 13.1174 2.18751C13.1174 2.32116 13.1039 2.45202 13.0781 2.57906L13.0818 2.57848L12.9052 3.14635L12.7805 3.3328L12.2301 3.87501C11.6265 4.31709 11.2006 5.04875 11.2006 5.95002C11.2006 5.96057 11.2007 5.97109 11.2008 5.9816H10.2178C10.2177 5.97108 10.2177 5.96056 10.2177 5.95002C10.2177 5.40875 10.3429 4.89691 10.5658 4.44224L11.8891 2.93126L11.8799 2.92488Z" fill="#2C3AA1"/>
<path fill-rule="evenodd" clip-rule="evenodd" d="M1.41536 9.61925C1.3911 9.6304 1.36856 9.6428 1.34781 9.65626C0.549286 9.9438 0 10.5439 0 11.2376C0 12.211 1.08132 13 2.4152 13H18.5848C19.9187 13 21 12.211 21 11.2376C21 10.5575 20.4721 9.96742 19.699 9.67357C19.6719 9.65357 19.6413 9.6355 19.6073 9.61987L10.7821 5.56063C10.5948 5.47446 10.3602 5.48792 10.195 5.58172L1.41536 9.61925ZM10.5115 6.31888L7.09297 7.89096L7.06847 7.86287L1.65734 10.375L1.66394 10.3825C1.27864 10.5631 1.02339 10.8786 1.02339 11.2376C1.02339 11.7985 1.64653 12.2532 2.4152 12.2532H18.5848C19.3535 12.2532 19.9766 11.7985 19.9766 11.2376C19.9766 10.878 19.7204 10.562 19.3339 10.3815L19.3446 10.369L16.8643 9.23692L16.8619 9.23981L10.5115 6.31888Z" fill="#2C3AA1"/>
</svg>
