<svg width="982" height="504" viewBox="0 0 982 504" fill="none" xmlns="http://www.w3.org/2000/svg">
<path d="M325 374C325 362.954 333.954 354 345 354H455C466.046 354 475 362.954 475 374V484C475 495.046 466.046 504 455 504H345C333.954 504 325 495.046 325 484V374Z" fill="white" fill-opacity="0.5"/>
<path d="M144 374C144 362.954 152.954 354 164 354H274C285.046 354 294 362.954 294 374V484C294 495.046 285.046 504 274 504H164C152.954 504 144 495.046 144 484V374Z" fill="white" fill-opacity="0.5"/>
<path d="M687 374C687 362.954 695.954 354 707 354H817C828.046 354 837 362.954 837 374V484C837 495.046 828.046 504 817 504H707C695.954 504 687 495.046 687 484V374Z" fill="white" fill-opacity="0.5"/>
<path d="M506 374C506 362.954 514.954 354 526 354H636C647.046 354 656 362.954 656 374V484C656 495.046 647.046 504 636 504H526C514.954 504 506 495.046 506 484V374Z" fill="white" fill-opacity="0.5"/>
<path d="M218.248 380.464C208.605 380.464 200.328 382.555 193.416 386.736C186.504 390.917 181.256 396.677 177.672 404.016C174.088 411.355 172.296 419.675 172.296 428.976C172.296 438.277 174.088 446.555 177.672 453.808C181.256 461.147 186.504 466.907 193.416 471.088C200.328 475.269 208.605 477.36 218.248 477.36C227.891 477.36 236.168 475.269 243.08 471.088C250.077 466.907 255.368 461.147 258.952 453.808C262.536 446.555 264.328 438.277 264.328 428.976C264.328 419.675 262.536 411.355 258.952 404.016C255.368 396.677 250.12 390.917 243.208 386.736C236.296 382.555 227.976 380.464 218.248 380.464ZM218.248 393.136C225.331 393.136 231.176 394.8 235.784 398.128C240.477 401.456 243.933 405.808 246.152 411.184C248.371 416.645 249.48 422.576 249.48 428.976C249.48 435.291 248.371 441.136 246.152 446.512C243.933 451.973 240.477 456.368 235.784 459.696C231.176 463.024 225.331 464.688 218.248 464.688C211.251 464.688 205.405 463.024 200.712 459.696C196.019 456.368 192.563 451.973 190.344 446.512C188.211 441.136 187.144 435.291 187.144 428.976C187.144 422.576 188.211 416.645 190.344 411.184C192.563 405.808 196.019 401.456 200.712 398.128C205.405 394.8 211.251 393.136 218.248 393.136Z" fill="#3F446B"/>
<path d="M544.208 383.176C543.355 383.176 542.715 383.432 542.288 383.944C541.776 384.371 541.52 385.011 541.52 385.864V392.776C541.52 393.629 541.776 394.312 542.288 394.824C542.715 395.251 543.355 395.464 544.208 395.464H572.368C573.221 395.464 573.904 395.72 574.416 396.232C574.843 396.659 575.056 397.299 575.056 398.152V474.312C575.056 475.165 575.312 475.848 575.824 476.36C576.251 476.787 576.891 477 577.744 477H586.32C587.173 477 587.856 476.787 588.368 476.36C588.795 475.848 589.008 475.165 589.008 474.312V398.152C589.008 397.299 589.264 396.659 589.776 396.232C590.203 395.72 590.843 395.464 591.696 395.464H619.856C620.709 395.464 621.392 395.251 621.904 394.824C622.331 394.312 622.544 393.629 622.544 392.776V385.864C622.544 385.011 622.331 384.371 621.904 383.944C621.392 383.432 620.709 383.176 619.856 383.176H544.208Z" fill="#3F446B"/>
<path d="M764.248 475.824C779.267 475.824 789.848 471.216 795.992 462C802.136 452.784 805.208 441.733 805.208 428.848C805.208 415.963 802.136 404.912 795.992 395.696C789.848 386.565 779.267 382 764.248 382H725.08C724.227 382 723.544 382.213 723.032 382.64C722.605 383.152 722.392 383.835 722.392 384.688V473.136C722.392 473.989 722.605 474.629 723.032 475.056C723.544 475.568 724.227 475.824 725.08 475.824H764.248ZM736.344 396.976C736.344 396.123 736.557 395.44 736.984 394.928C737.496 394.501 738.179 394.288 739.032 394.288H760.408C765.955 394.288 770.861 395.099 775.128 396.72C779.395 398.427 782.936 401.797 785.752 406.832C788.653 411.952 790.104 419.291 790.104 428.848C790.104 438.405 788.653 445.744 785.752 450.864C782.936 455.984 779.395 459.355 775.128 460.976C770.861 462.683 765.955 463.536 760.408 463.536H739.032C738.179 463.536 737.496 463.28 736.984 462.768C736.557 462.341 736.344 461.701 736.344 460.848V396.976Z" fill="#3F446B"/>
<path d="M399.248 380.464C389.605 380.464 381.328 382.555 374.416 386.736C367.504 390.917 362.256 396.677 358.672 404.016C355.088 411.355 353.296 419.675 353.296 428.976C353.296 438.277 355.088 446.555 358.672 453.808C362.256 461.147 367.504 466.907 374.416 471.088C381.328 475.269 389.605 477.36 399.248 477.36C408.891 477.36 417.168 475.269 424.08 471.088C431.077 466.907 436.368 461.147 439.952 453.808C443.536 446.555 445.328 438.277 445.328 428.976C445.328 419.675 443.536 411.355 439.952 404.016C436.368 396.677 431.12 390.917 424.208 386.736C417.296 382.555 408.976 380.464 399.248 380.464ZM399.248 393.136C406.331 393.136 412.176 394.8 416.784 398.128C421.477 401.456 424.933 405.808 427.152 411.184C429.371 416.645 430.48 422.576 430.48 428.976C430.48 435.291 429.371 441.136 427.152 446.512C424.933 451.973 421.477 456.368 416.784 459.696C412.176 463.024 406.331 464.688 399.248 464.688C392.251 464.688 386.405 463.024 381.712 459.696C377.019 456.368 373.563 451.973 371.344 446.512C369.211 441.136 368.144 435.291 368.144 428.976C368.144 422.576 369.211 416.645 371.344 411.184C373.563 405.808 377.019 401.456 381.712 398.128C386.405 394.8 392.251 393.136 399.248 393.136Z" fill="#3F446B"/>
<path d="M524.648 75.1385C528.99 69.7393 531.529 63.2183 531.529 56.1958C531.529 37.5741 513.68 22.4783 491.664 22.4783C470.993 22.4783 453.996 35.7856 451.996 52.824H451.799C451.799 59.0312 445.85 64.0632 438.511 64.0632C431.172 64.0632 425.223 59.0312 425.223 52.824C425.223 51.8993 425.355 51.0007 425.604 50.1409C429.174 21.9523 457.389 0 491.664 0C528.359 0 558.105 25.1597 558.105 56.1958C558.105 59.6293 557.741 62.9908 557.044 66.2545L557.142 66.2397L552.368 80.8279L548.996 85.6176L534.116 99.5468C517.795 110.903 506.281 129.699 506.281 152.852C506.281 153.799 506.301 154.738 506.338 155.67L616.298 199.97L616.36 199.912L641.045 209.866L640.996 209.921L935.998 328.771C962.692 336.063 982 357.253 982 382.258C982 413.294 952.253 438.453 915.559 438.453C914.593 438.453 913.632 438.436 912.675 438.401L915.558 438.401V438.327H882.557V415.853H882V415.849H919.035C939.424 414.359 955.424 399.889 955.424 382.258C955.424 368.796 946.096 357.177 932.609 351.771L932.722 351.569L786.01 293.23L786.005 293.24L664.357 244.23L664.494 243.987L491.188 174.166L491.176 174.144L491.155 174.152L491.133 174.144L491.121 174.165L316.79 244.4L316.841 244.49L132.8 318.636L52.0466 350.742C37.1434 355.625 26.5764 367.866 26.5764 382.194C26.5764 400.117 43.1095 414.774 63.98 415.849H100V415.853H99.4432V438.327H66.4411V438.39C29.7467 438.39 0 413.231 0 382.194C0 357.191 19.3075 336.001 46.0001 328.708L479.712 153.974C479.707 153.601 479.705 153.227 479.705 152.852C479.705 138.947 483.09 125.799 489.117 114.118L524.896 75.3023L524.648 75.1385Z" fill="#4F5794"/>
<path d="M100 438.327H99.4432V438.453H100V438.327Z" fill="#4F5794"/>
<path d="M882 438.453H882.557V438.327H882V438.453Z" fill="#4F5794"/>
</svg>
