<svg width="111" height="24" viewBox="0 0 111 24" fill="none" xmlns="http://www.w3.org/2000/svg">
<path d="M28.9913 3.2C28.9913 1.43269 30.4256 0 32.1948 0H49.8139C51.5831 0 53.0173 1.43269 53.0173 3.2V20.8C53.0173 22.5673 51.5831 24 49.8139 24H32.1948C30.4256 24 28.9913 22.5673 28.9913 20.8V3.2Z" fill="white" fill-opacity="0.5"/>
<path d="M0 3.2C0 1.43269 1.43424 0 3.20346 0H20.8225C22.5917 0 24.026 1.43269 24.026 3.2V20.8C24.026 22.5673 22.5917 24 20.8225 24H3.20346C1.43424 24 0 22.5673 0 20.8V3.2Z" fill="white" fill-opacity="0.5"/>
<path d="M86.974 3.2C86.974 1.43269 88.4083 0 90.1775 0H107.797C109.566 0 111 1.43269 111 3.2V20.8C111 22.5673 109.566 24 107.797 24H90.1775C88.4083 24 86.974 22.5673 86.974 20.8V3.2Z" fill="white" fill-opacity="0.5"/>
<path d="M57.9827 3.2C57.9827 1.43269 59.4169 0 61.1861 0H78.8052C80.5744 0 82.0087 1.43269 82.0087 3.2V20.8C82.0087 22.5673 80.5744 24 78.8052 24H61.1861C59.4169 24 57.9827 22.5673 57.9827 20.8V3.2Z" fill="white" fill-opacity="0.5"/>
<path d="M11.8925 4.23424C10.348 4.23424 9.02223 4.56875 7.91512 5.23776C6.808 5.90677 5.96741 6.82837 5.39335 8.00256C4.81929 9.17675 4.53226 10.5079 4.53226 11.9962C4.53226 13.4844 4.81929 14.8087 5.39335 15.9693C5.96741 17.1435 6.808 18.0651 7.91512 18.7341C9.02223 19.4031 10.348 19.7376 11.8925 19.7376C13.437 19.7376 14.7628 19.4031 15.87 18.7341C16.9907 18.0651 17.8382 17.1435 18.4122 15.9693C18.9863 14.8087 19.2733 13.4844 19.2733 11.9962C19.2733 10.5079 18.9863 9.17675 18.4122 8.00256C17.8382 6.82837 16.9976 5.90677 15.8905 5.23776C14.7833 4.56875 13.4507 4.23424 11.8925 4.23424ZM11.8925 6.26176C13.027 6.26176 13.9633 6.528 14.7013 7.06048C15.4531 7.59296 16.0066 8.28928 16.362 9.14944C16.7174 10.0233 16.8951 10.9722 16.8951 11.9962C16.8951 13.0065 16.7174 13.9418 16.362 14.8019C16.0066 15.6757 15.4531 16.3789 14.7013 16.9114C13.9633 17.4438 13.027 17.7101 11.8925 17.7101C10.7718 17.7101 9.83549 17.4438 9.08374 16.9114C8.33199 16.3789 7.77844 15.6757 7.42307 14.8019C7.08136 13.9418 6.91051 13.0065 6.91051 11.9962C6.91051 10.9722 7.08136 10.0233 7.42307 9.14944C7.77844 8.28928 8.33199 7.59296 9.08374 7.06048C9.83549 6.528 10.7718 6.26176 11.8925 6.26176Z" fill="#2C3AA1"/>
<path d="M64.1026 4.66816C63.9659 4.66816 63.8634 4.70912 63.795 4.79104C63.713 4.85931 63.672 4.96171 63.672 5.09824V6.20416C63.672 6.34069 63.713 6.44992 63.795 6.53184C63.8634 6.60011 63.9659 6.63424 64.1026 6.63424H68.6131C68.7497 6.63424 68.8591 6.6752 68.9411 6.75712C69.0094 6.82539 69.0436 6.92779 69.0436 7.06432V19.2499C69.0436 19.3865 69.0846 19.4957 69.1666 19.5776C69.235 19.6459 69.3375 19.68 69.4741 19.68H70.8478C70.9845 19.68 71.0938 19.6459 71.1758 19.5776C71.2442 19.4957 71.2783 19.3865 71.2783 19.2499V7.06432C71.2783 6.92779 71.3193 6.82539 71.4014 6.75712C71.4697 6.6752 71.5722 6.63424 71.7089 6.63424H76.2194C76.356 6.63424 76.4654 6.60011 76.5474 6.53184C76.6157 6.44992 76.6499 6.34069 76.6499 6.20416V5.09824C76.6499 4.96171 76.6157 4.85931 76.5474 4.79104C76.4654 4.70912 76.356 4.66816 76.2194 4.66816H64.1026Z" fill="#2C3AA1"/>
<path d="M99.3471 19.4918C101.753 19.4918 103.448 18.7546 104.432 17.28C105.416 15.8054 105.908 14.0373 105.908 11.9757C105.908 9.91403 105.416 8.14592 104.432 6.67136C103.448 5.21045 101.753 4.48 99.3471 4.48H93.0734C92.9367 4.48 92.8274 4.51413 92.7454 4.5824C92.677 4.66432 92.6429 4.77355 92.6429 4.91008V19.0618C92.6429 19.1983 92.677 19.3007 92.7454 19.369C92.8274 19.4509 92.9367 19.4918 93.0734 19.4918H99.3471ZM94.8776 6.87616C94.8776 6.73963 94.9118 6.6304 94.9801 6.54848C95.0621 6.48021 95.1715 6.44608 95.3082 6.44608H98.732C99.6205 6.44608 100.406 6.57579 101.09 6.8352C101.773 7.10827 102.34 7.64757 102.791 8.45312C103.256 9.27232 103.489 10.4465 103.489 11.9757C103.489 13.5049 103.256 14.679 102.791 15.4982C102.34 16.3174 101.773 16.8567 101.09 17.1162C100.406 17.3892 99.6205 17.5258 98.732 17.5258H95.3082C95.1715 17.5258 95.0621 17.4848 94.9801 17.4029C94.9118 17.3346 94.8776 17.2322 94.8776 17.0957V6.87616Z" fill="#2C3AA1"/>
<path d="M40.8839 4.23424C39.3394 4.23424 38.0136 4.56875 36.9065 5.23776C35.7993 5.90677 34.9588 6.82837 34.3847 8.00256C33.8106 9.17675 33.5236 10.5079 33.5236 11.9962C33.5236 13.4844 33.8106 14.8087 34.3847 15.9693C34.9588 17.1435 35.7993 18.0651 36.9065 18.7341C38.0136 19.4031 39.3394 19.7376 40.8839 19.7376C42.4284 19.7376 43.7542 19.4031 44.8613 18.7341C45.9821 18.0651 46.8295 17.1435 47.4036 15.9693C47.9776 14.8087 48.2647 13.4844 48.2647 11.9962C48.2647 10.5079 47.9776 9.17675 47.4036 8.00256C46.8295 6.82837 45.9889 5.90677 44.8818 5.23776C43.7747 4.56875 42.442 4.23424 40.8839 4.23424ZM40.8839 6.26176C42.0183 6.26176 42.9546 6.528 43.6927 7.06048C44.4444 7.59296 44.998 8.28928 45.3534 9.14944C45.7087 10.0233 45.8864 10.9722 45.8864 11.9962C45.8864 13.0065 45.7087 13.9418 45.3534 14.8019C44.998 15.6757 44.4444 16.3789 43.6927 16.9114C42.9546 17.4438 42.0183 17.7101 40.8839 17.7101C39.7631 17.7101 38.8268 17.4438 38.0751 16.9114C37.3233 16.3789 36.7698 15.6757 36.4144 14.8019C36.0727 13.9418 35.9019 13.0065 35.9019 11.9962C35.9019 10.9722 36.0727 10.0233 36.4144 9.14944C36.7698 8.28928 37.3233 7.59296 38.0751 7.06048C38.8268 6.528 39.7631 6.26176 40.8839 6.26176Z" fill="#2C3AA1"/>
</svg>
