<svg width="40" height="40" viewBox="0 0 40 40" fill="none" xmlns="http://www.w3.org/2000/svg">
<path d="M40 20C40 31.0457 31.0457 40 20 40C8.9543 40 0 31.0457 0 20C0 8.9543 8.9543 0 20 0C31.0457 0 40 8.9543 40 20Z" fill="#F6F8FF"/>
<path d="M25.8333 14C25.8333 17.3137 23.2217 20 20 20C16.7783 20 14.1667 17.3137 14.1667 14C14.1667 10.6863 16.7783 8 20 8C23.2217 8 25.8333 10.6863 25.8333 14Z" fill="#6D77C1"/>
<path d="M10 26.8571C10 24.0168 12.2386 21.7143 15 21.7143H25C27.7614 21.7143 30 24.0168 30 26.8571C30 29.6975 27.7614 32 25 32H15C12.2386 32 10 29.6975 10 26.8571Z" fill="#6D77C1"/>
</svg>
